<?xml version="1.0" encoding="UTF-8" standalone="no"?>
<svg
   xmlns:dc="http://purl.org/dc/elements/1.1/"
   xmlns:cc="http://creativecommons.org/ns#"
   xmlns:rdf="http://www.w3.org/1999/02/22-rdf-syntax-ns#"
   xmlns:svg="http://www.w3.org/2000/svg"
   xmlns="http://www.w3.org/2000/svg"
   xmlns:xlink="http://www.w3.org/1999/xlink"
   xmlns:sodipodi="http://sodipodi.sourceforge.net/DTD/sodipodi-0.dtd"
   xmlns:inkscape="http://www.inkscape.org/namespaces/inkscape"
   id="e8f68bdd-4984-4f2e-95b7-7fc8ec281257"
   data-name="Layer 1"
   width="918.14"
   height="765.54"
   viewBox="0 0 918.14 765.54"
   version="1.1"
   sodipodi:docname="Privacy.svg"
   inkscape:version="0.92.4 (5da689c313, 2019-01-14)">
  <metadata
     id="metadata5469">
    <rdf:RDF>
      <cc:Work
         rdf:about="">
        <dc:format>image/svg+xml</dc:format>
        <dc:type
           rdf:resource="http://purl.org/dc/dcmitype/StillImage" />
        <dc:title>secure data</dc:title>
      </cc:Work>
    </rdf:RDF>
  </metadata>
  <sodipodi:namedview
     pagecolor="#ffffff"
     bordercolor="#666666"
     borderopacity="1"
     objecttolerance="10"
     gridtolerance="10"
     guidetolerance="10"
     inkscape:pageopacity="0"
     inkscape:pageshadow="2"
     inkscape:window-width="1920"
     inkscape:window-height="1001"
     id="namedview5467"
     showgrid="false"
     inkscape:zoom="0.61655826"
     inkscape:cx="900.27814"
     inkscape:cy="288.32878"
     inkscape:window-x="-9"
     inkscape:window-y="-9"
     inkscape:window-maximized="1"
     inkscape:current-layer="e8f68bdd-4984-4f2e-95b7-7fc8ec281257" />
  <defs
     id="defs5324">
    <linearGradient
       id="27aa7b70-b106-4a00-be67-693c8380e41d"
       x1="397.74"
       y1="717.25"
       x2="397.74"
       y2="86.11"
       gradientUnits="userSpaceOnUse">
      <stop
         offset="0"
         stop-color="gray"
         stop-opacity="0.25"
         id="stop5304" />
      <stop
         offset="0.54"
         stop-color="gray"
         stop-opacity="0.12"
         id="stop5306" />
      <stop
         offset="1"
         stop-color="gray"
         stop-opacity="0.1"
         id="stop5308" />
    </linearGradient>
    <linearGradient
       id="46a816da-c484-41ec-8a6f-fbf14454d910"
       x1="288.88"
       y1="378.44"
       x2="288.88"
       y2="209.65"
       xlink:href="#27aa7b70-b106-4a00-be67-693c8380e41d" />
    <linearGradient
       id="32b634d8-28f1-48d9-a868-f602a2cad942"
       x1="288.88"
       y1="328.29"
       x2="288.88"
       y2="223.1"
       xlink:href="#27aa7b70-b106-4a00-be67-693c8380e41d" />
    <clipPath
       id="7a4c6aff-0be0-461b-a111-b3ae1b8fbf73"
       transform="translate(-140.93 -67.23)">
      <rect
         id="8cc91f6d-19b0-43cc-9c18-2faa83ac34ba"
         data-name="&lt;Rectangle&gt;"
         x="354.51"
         y="291.55"
         width="150.6"
         height="101.52"
         fill="#fff" />
    </clipPath>
    <linearGradient
       id="38f1cb81-8fac-4205-a0ff-a33ac00d354c"
       x1="288.88"
       y1="594.94"
       x2="288.88"
       y2="426.14"
       xlink:href="#27aa7b70-b106-4a00-be67-693c8380e41d" />
    <linearGradient
       id="6fc01aaf-135e-403e-a209-43b2a4fe59f1"
       x1="288.88"
       y1="544.79"
       x2="288.88"
       y2="439.6"
       xlink:href="#27aa7b70-b106-4a00-be67-693c8380e41d" />
    <clipPath
       id="79ce363a-d134-40e4-9f82-b96d04a36978"
       transform="translate(-140.93 -67.23)">
      <rect
         id="5b44e697-61fe-43bd-9a58-5f3e41301748"
         data-name="&lt;Rectangle&gt;"
         x="354.51"
         y="508.05"
         width="150.6"
         height="101.52"
         fill="#fff" />
    </clipPath>
    <linearGradient
       id="54803c44-522d-4b9e-9a34-f1f7b43e8483"
       x1="671.57"
       y1="760.34"
       x2="671.57"
       y2="129.2"
       gradientTransform="rotate(90,651.765,457.665)"
       xlink:href="#27aa7b70-b106-4a00-be67-693c8380e41d" />
    <linearGradient
       id="089a6a47-adaa-499b-aefb-cd6464b62fb8"
       x1="670.96"
       y1="553.63"
       x2="670.96"
       y2="387.28"
       gradientTransform="rotate(90,648.96,480.55)"
       xlink:href="#27aa7b70-b106-4a00-be67-693c8380e41d" />
    <linearGradient
       id="fd8d88e0-7826-450d-9e0b-001d1be709c2"
       x1="637.66"
       y1="754.12"
       x2="637.66"
       y2="601.05"
       xlink:href="#27aa7b70-b106-4a00-be67-693c8380e41d"
       gradientTransform="translate(119.27357,3.4405838)" />
    <linearGradient
       id="8d1793c5-b76e-44e2-a52e-569460402331"
       x1="778.37"
       y1="673.86"
       x2="778.37"
       y2="569.13"
       xlink:href="#27aa7b70-b106-4a00-be67-693c8380e41d"
       gradientTransform="translate(-21.65643,-63.789416)" />
    <linearGradient
       id="4745700d-8097-45ff-9f71-625443fc4ad8"
       x1="778.37"
       y1="774.41"
       x2="778.37"
       y2="713.66"
       xlink:href="#27aa7b70-b106-4a00-be67-693c8380e41d"
       gradientTransform="translate(-21.65643,-63.789416)" />
    <linearGradient
       inkscape:collect="always"
       xlink:href="#27aa7b70-b106-4a00-be67-693c8380e41d"
       id="linearGradient5481"
       gradientUnits="userSpaceOnUse"
       x1="397.74"
       y1="717.25"
       x2="397.74"
       y2="86.11" />
  </defs>
  <title
     id="title5326">secure data</title>
  <g
     id="g5330"
     transform="translate(-42.433866,-6.8811675)"
     style="opacity:0.5">
    <rect
       x="162.89999"
       y="86.110001"
       width="469.69"
       height="631.14001"
       id="rect5328"
       style="fill:url(#linearGradient5481)" />
  </g>
  <rect
     x="126.58614"
     y="87.788834"
     width="455.01001"
     height="609.12"
     id="rect5332"
     style="fill:#f2f2f2" />
  <rect
     x="162.05614"
     y="113.47884"
     width="156.56"
     height="4.8899999"
     id="rect5334"
     style="fill:#e0e0e0" />
  <rect
     x="162.05614"
     y="135.48883"
     width="156.56"
     height="4.8899999"
     id="rect5336"
     style="opacity:0.7;fill:#c01833" />
  <rect
     x="341.85614"
     y="113.47884"
     width="156.56"
     height="4.8899999"
     id="rect5338"
     style="fill:#e0e0e0" />
  <rect
     x="366.31613"
     y="252.91882"
     width="156.56"
     height="4.8899999"
     id="rect5340"
     style="fill:#e0e0e0" />
  <rect
     x="369.98615"
     y="266.36884"
     width="156.56"
     height="4.8899999"
     id="rect5342"
     style="fill:#e0e0e0" />
  <rect
     x="377.32614"
     y="279.81885"
     width="156.56"
     height="4.8899999"
     id="rect5344"
     style="fill:#e0e0e0" />
  <rect
     x="366.31613"
     y="469.40884"
     width="156.56"
     height="4.8899999"
     id="rect5346"
     style="fill:#e0e0e0" />
  <rect
     x="369.98615"
     y="482.86884"
     width="156.56"
     height="4.8899999"
     id="rect5348"
     style="fill:#e0e0e0" />
  <rect
     x="377.32614"
     y="496.31885"
     width="156.56"
     height="4.8899999"
     id="rect5350"
     style="fill:#e0e0e0" />
  <g
     id="g5354"
     transform="translate(-42.433866,-6.8811675)"
     style="opacity:0.5">
    <rect
       x="205.71001"
       y="209.64999"
       width="166.35001"
       height="168.78999"
       id="rect5352"
       style="fill:url(#46a816da-c484-41ec-8a6f-fbf14454d910)" />
  </g>
  <rect
     x="164.32613"
     y="206.43884"
     width="163.72"
     height="161.45"
     id="rect5356"
     style="fill:#f5f5f5" />
  <g
     id="g5360"
     transform="translate(-42.433866,-6.8811675)"
     style="opacity:0.5">
    <rect
       x="212.53"
       y="223.10001"
       width="152.7"
       height="105.19"
       id="rect5358"
       style="fill:url(#32b634d8-28f1-48d9-a868-f602a2cad942)" />
  </g>
  <rect
     id="689f37f3-cc41-448d-b172-63ec123bc985"
     data-name="&lt;Rectangle&gt;"
     x="171.14613"
     y="217.43884"
     width="150.60001"
     height="101.52"
     style="fill:#ffffff" />
  <g
     id="g5371"
     transform="translate(-42.433866,-6.8811675)"
     style="opacity:0.5">
    <rect
       x="205.71001"
       y="426.14001"
       width="166.35001"
       height="168.78999"
       id="rect5369"
       style="fill:url(#38f1cb81-8fac-4205-a0ff-a33ac00d354c)" />
  </g>
  <rect
     x="164.32613"
     y="422.92883"
     width="163.72"
     height="161.45"
     id="rect5373"
     style="fill:#f5f5f5" />
  <g
     id="g5377"
     transform="translate(-42.433866,-6.8811675)"
     style="opacity:0.5">
    <rect
       x="212.53"
       y="439.60001"
       width="152.7"
       height="105.19"
       id="rect5375"
       style="fill:url(#6fc01aaf-135e-403e-a209-43b2a4fe59f1)" />
  </g>
  <rect
     id="b429ac3a-f8a8-4171-bcce-5b6c002c0714"
     data-name="&lt;Rectangle&gt;"
     x="171.14613"
     y="433.93884"
     width="150.60001"
     height="101.52"
     style="fill:#ffffff" />
  <g
     clip-path="url(#79ce363a-d134-40e4-9f82-b96d04a36978)"
     id="g5384"
     transform="translate(-42.433866,-6.8811675)">
    <polygon
       points="238.74,479.96 254.64,505.65 288.88,470.18 318.24,505.65 343.93,453.05 409.98,558.24 195.93,550.9 200.82,538.67 "
       id="polygon5380"
       style="opacity:0.4;fill:#bdbdbd" />
    <circle
       cx="230.17"
       cy="455.5"
       r="11.01"
       id="circle5382"
       style="opacity:0.4;fill:#bdbdbd" />
  </g>
  <g
     id="g5388"
     transform="translate(33.63791,-7.2704427)"
     style="opacity:0.5">
    <rect
       x="349.09"
       y="242.63"
       width="631.14001"
       height="469.69"
       transform="rotate(-78.76,553.21646,529.70407)"
       id="rect5386"
       style="fill:url(#54803c44-522d-4b9e-9a34-f1f7b43e8483)" />
  </g>
  <rect
     x="-588.69489"
     y="396.46442"
     width="609.12"
     height="455.01001"
     transform="rotate(-78.76)"
     id="rect5390"
     style="fill:#ffffff" />
  <rect
     x="429.53259"
     y="7.6902976"
     width="322.91"
     height="4.8899999"
     transform="rotate(11.24)"
     id="rect5392"
     style="fill:#e0e0e0" />
  <rect
     x="429.53247"
     y="470.05066"
     width="322.91"
     height="4.8899999"
     transform="rotate(11.24)"
     id="rect5394"
     style="fill:#e0e0e0" />
  <rect
     x="429.53421"
     y="498.18622"
     width="249.52"
     height="4.8899999"
     transform="rotate(11.24)"
     id="rect5396"
     style="fill:#e0e0e0" />
  <rect
     x="429.53964"
     y="526.31226"
     width="92.959999"
     height="4.8899999"
     transform="rotate(11.24)"
     id="rect5398"
     style="opacity:0.7;fill:#c01833" />
  <rect
     x="429.5423"
     y="35.834721"
     width="161.45"
     height="4.8899999"
     transform="rotate(11.24)"
     id="rect5400"
     style="opacity:0.7;fill:#c01833" />
  <rect
     x="429.54211"
     y="63.960789"
     width="291.10999"
     height="4.8899999"
     transform="rotate(11.24)"
     id="rect5402"
     style="fill:#e0e0e0" />
  <rect
     x="429.5459"
     y="92.09523"
     width="70.940002"
     height="4.8899999"
     transform="rotate(11.24)"
     id="rect5404"
     style="opacity:0.7;fill:#3ad29f" />
  <rect
     x="429.53537"
     y="120.22475"
     width="322.91"
     height="4.8899999"
     transform="rotate(11.24)"
     id="rect5406"
     style="fill:#e0e0e0" />
  <g
     id="g5410"
     transform="translate(33.63791,-7.2704427)"
     style="opacity:0.5">
    <rect
       x="575.87"
       y="357.60001"
       width="166.35001"
       height="289.88"
       transform="rotate(-78.76,547.60369,554.77623)"
       id="rect5408"
       style="fill:url(#089a6a47-adaa-499b-aefb-cd6464b62fb8)" />
  </g>
  <rect
     x="481.52267"
     y="230.31148"
     width="286.22"
     height="162.67999"
     transform="rotate(11.24)"
     id="rect5412"
     style="fill:#ffffff" />
  <rect
     x="429.53613"
     y="148.35683"
     width="322.91"
     height="4.8899999"
     transform="rotate(11.24)"
     id="rect5414"
     style="fill:#e0e0e0" />
  <rect
     x="511.49368"
     y="252.3248"
     width="35.470001"
     height="118.64"
     transform="rotate(11.24)"
     id="rect5416"
     style="fill:#c01833" />
  <rect
     x="575.09698"
     y="291.47318"
     width="35.470001"
     height="79.5"
     transform="rotate(11.24)"
     id="rect5418"
     style="fill:#3ad29f" />
  <rect
     x="638.69885"
     y="328.15591"
     width="35.470001"
     height="42.810001"
     transform="rotate(11.24)"
     id="rect5420"
     style="fill:#f55f44" />
  <rect
     x="702.30176"
     y="284.12988"
     width="35.470001"
     height="86.839996"
     transform="rotate(11.24)"
     id="rect5422"
     style="fill:#fdd835" />
  <g
     opacity="0.5"
     id="g5428">
    <rect
       x="128.65"
       y="645.09"
       width="3.67"
       height="20.79"
       fill="#47e6b1"
       id="rect5424" />
    <rect
       x="269.58"
       y="712.31"
       width="3.67"
       height="20.79"
       transform="translate(853.2 384.07) rotate(90)"
       fill="#47e6b1"
       id="rect5426" />
  </g>
  <path
     d="M699.44,75.56a4.49,4.49,0,0,1-2.5-5.43,2.16,2.16,0,0,0,.1-.5h0a2.25,2.25,0,0,0-4-1.49h0a2.16,2.16,0,0,0-.25.44,4.49,4.49,0,0,1-5.43,2.5,2.16,2.16,0,0,0-.5-.1h0a2.25,2.25,0,0,0-1.49,4h0a2.16,2.16,0,0,0,.44.25,4.49,4.49,0,0,1,2.5,5.43,2.16,2.16,0,0,0-.1.5h0a2.25,2.25,0,0,0,4,1.49h0a2.16,2.16,0,0,0,.25-.44,4.49,4.49,0,0,1,5.43-2.5,2.16,2.16,0,0,0,.5.1h0a2.25,2.25,0,0,0,1.49-4h0A2.16,2.16,0,0,0,699.44,75.56Z"
     transform="translate(-140.93 -67.23)"
     fill="#4d8af0"
     opacity="0.5"
     id="path5430" />
  <path
     d="M286.33,179.4a4.49,4.49,0,0,1-2.5-5.43,2.16,2.16,0,0,0,.1-.5h0a2.25,2.25,0,0,0-4-1.49h0a2.16,2.16,0,0,0-.25.44,4.49,4.49,0,0,1-5.43,2.5,2.16,2.16,0,0,0-.5-.1h0a2.25,2.25,0,0,0-1.49,4h0a2.16,2.16,0,0,0,.44.25,4.49,4.49,0,0,1,2.5,5.43,2.16,2.16,0,0,0-.1.5h0a2.25,2.25,0,0,0,4,1.49h0a2.16,2.16,0,0,0,.25-.44,4.49,4.49,0,0,1,5.43-2.5,2.16,2.16,0,0,0,.5.1h0a2.25,2.25,0,0,0,1.49-4h0A2.16,2.16,0,0,0,286.33,179.4Z"
     transform="translate(-140.93 -67.23)"
     fill="#fdd835"
     opacity="0.5"
     id="path5432" />
  <path
     d="M253.63,484.46a4.49,4.49,0,0,1-2.5-5.43,2.16,2.16,0,0,0,.1-.5h0a2.25,2.25,0,0,0-4-1.49h0a2.16,2.16,0,0,0-.25.44,4.49,4.49,0,0,1-5.43,2.5,2.16,2.16,0,0,0-.5-.1h0a2.25,2.25,0,0,0-1.49,4h0a2.16,2.16,0,0,0,.44.25,4.49,4.49,0,0,1,2.5,5.43,2.16,2.16,0,0,0-.1.5h0a2.25,2.25,0,0,0,4,1.49h0a2.16,2.16,0,0,0,.25-.44,4.49,4.49,0,0,1,5.43-2.5,2.16,2.16,0,0,0,.5.1h0a2.25,2.25,0,0,0,1.49-4h0A2.16,2.16,0,0,0,253.63,484.46Z"
     transform="translate(-140.93 -67.23)"
     fill="#fdd835"
     opacity="0.5"
     id="path5434" />
  <circle
     cx="337.81"
     cy="28.62"
     r="7.34"
     fill="#f55f44"
     opacity="0.5"
     id="circle5436" />
  <circle
     cx="7.34"
     cy="317.46"
     r="7.34"
     fill="#f55f44"
     opacity="0.5"
     id="circle5438" />
  <circle
     cx="863.76"
     cy="120.36"
     r="7.34"
     fill="#f55f44"
     opacity="0.5"
     id="circle5440" />
  <circle
     cx="822.17"
     cy="339.3"
     r="7.34"
     fill="#4d8af0"
     opacity="0.5"
     id="circle5442" />
  <circle
     cx="37.68"
     cy="145.22"
     r="7.34"
     fill="#47e6b1"
     opacity="0.5"
     id="circle5444" />
  <circle
     cx="853.29"
     cy="647.34"
     r="7.34"
     fill="#47e6b1"
     opacity="0.5"
     id="circle5446" />
  <circle
     cx="910.8"
     cy="430.97"
     r="7.34"
     fill="#47e6b1"
     opacity="0.5"
     id="circle5448" />
  <g
     id="g5479"
     transform="matrix(1.2185003,0,0,1.1391537,-517.58352,-371.17449)">
    <rect
       style="fill:url(#fd8d88e0-7826-450d-9e0b-001d1be709c2)"
       id="rect5450"
       height="153.07001"
       width="186.48"
       y="604.4906"
       x="663.69354" />
    <path
       inkscape:connector-curvature="0"
       style="fill:url(#8d1793c5-b76e-44e2-a52e-569460402331)"
       id="path5452"
       d="m 702.16357,575.21058 a 54.55,54.55 0 0 1 109.1,0 v 34.91 h 15.27 v -34.91 a 69.825,69.825 0 0 0 -139.65,0 v 34.91 h 15.27 z" />
    <path
       style="fill:#f5f5f5"
       inkscape:connector-curvature="0"
       id="path5454"
       d="m 704.34357,574.46058 a 52.37,52.37 0 1 1 104.74,0 v 33.52 h 14.66 v -33.52 a 67.03,67.03 0 0 0 -134.06,0 v 33.52 h 14.66 z" />
    <rect
       style="fill:#c01833"
       id="rect5456"
       height="148.73"
       width="182.24001"
       y="605.89062"
       x="665.59357" />
    <rect
       style="fill:#f5f5f5"
       id="rect5458"
       height="148.73"
       width="182.24001"
       y="605.89062"
       x="665.59357" />
    <rect
       style="fill:#c01833"
       id="rect5460"
       height="90.07"
       width="182.24001"
       y="635.21063"
       x="665.59357" />
    <path
       inkscape:connector-curvature="0"
       style="fill:url(#4745700d-8097-45ff-9f71-625443fc4ad8)"
       id="path5462"
       d="m 770.07357,663.21058 a 13.36,13.36 0 1 0 -23.08,9.15 v 28.51 a 9.72,9.72 0 0 0 19.44,0 v -28.48 a 13.3,13.3 0 0 0 3.64,-9.18 z" />
    <path
       style="opacity:0.2"
       inkscape:connector-curvature="0"
       id="path5464"
       d="m 768.23357,665.59058 a 11.52,11.52 0 1 0 -19.9,7.89 v 24.58 a 8.38,8.38 0 1 0 16.76,0 v -24.58 a 11.47,11.47 0 0 0 3.14,-7.89 z" />
  </g>
</svg>
